# This file uses meters as units for non-parametric coordinates.

mtllib beam base.mtl
g default
v -5.581207 46.512787 3.895260
v 5.710907 46.512787 3.895260
v -5.581207 54.303318 3.895260
v 5.710899 54.303318 3.895260
v -5.581207 54.303318 -3.895260
v 5.710899 54.303318 -3.895260
v -5.581207 46.512794 -3.895260
v 5.710899 46.512794 -3.895260
v 19.432419 50.408051 0.000000
v -19.033981 50.517689 0.000000
vt 0.655008 0.886737
vt 0.310147 0.130460
vt 0.329038 0.703902
vt 0.644561 0.709344
vt 0.336900 0.513847
vt 0.646953 0.515525
vt 0.333298 0.352157
vt 0.650959 0.355284
vt 0.027564 0.518301
vt 0.976421 0.531039
vt 0.633451 0.126134
vt 0.303235 0.860195
vn -0.094799 0.000000 0.995497
vn 0.094759 0.000000 0.995500
vn 0.094759 0.000000 0.995500
vn -0.095506 0.000000 0.995429
vn -0.092471 0.995715 0.000000
vn 0.094759 0.995500 0.000000
vn 0.094759 0.995500 0.000000
vn -0.092471 0.995715 0.000000
vn -0.095506 0.000000 -0.995429
vn 0.094759 0.000000 -0.995500
vn 0.094759 0.000000 -0.995500
vn -0.094799 0.000000 -0.995496
vn -0.097834 -0.995203 -0.000001
vn 0.094759 -0.995500 -0.000001
vn 0.094759 -0.995500 -0.000001
vn -0.097834 -0.995203 -0.000001
vn 0.273089 -0.961989 -0.000001
vn 0.273089 0.000000 -0.961989
vn 0.273090 0.961989 0.000000
vn 0.273089 0.000000 0.961989
vn -0.285325 -0.958431 -0.000002
vn -0.278126 0.000000 0.960545
vn -0.270881 0.962613 0.000000
vn -0.278127 0.000000 -0.960544
s 1
g pCube1
usemtl texturedFacets
f 1/1/1 2/12/2 4/3/3 3/4/4
s 2
f 3/4/5 4/3/6 6/5/7 5/6/8
s 3
f 5/6/9 6/5/10 8/7/11 7/8/12
s 4
f 7/8/13 8/7/14 2/2/15 1/11/16
f 2/2/15 8/7/14 9/9/17
s 3
f 8/7/11 6/5/10 9/9/18
s 2
f 6/5/7 4/3/6 9/9/19
s 1
f 4/3/3 2/12/2 9/9/20
s 4
f 7/8/13 1/11/16 10/10/21
s 1
f 1/1/1 3/4/4 10/10/22
s 2
f 3/4/5 5/6/8 10/10/23
s 3
f 5/6/9 7/8/12 10/10/24
